# Blender v2.79 (sub 0) OBJ File: '3d_phone_textured.blend'
# www.blender.org
mtllib 3d_phone_textured.mtl
o Cube
v 3.122917 -0.586365 -4.541370
v 3.122917 -0.586365 3.978039
v -1.760602 -0.586365 3.978039
v -1.760601 -0.586365 -4.541370
v 3.122917 0.500208 -4.541370
v 3.122916 0.500208 3.978039
v -1.760602 0.500208 3.978038
v -1.760602 0.500208 -4.541370
v -1.760602 -0.500208 3.978039
v -1.760602 0.500208 3.978038
v -1.760602 0.500208 -4.541370
v -1.760601 -0.500208 -4.541370
v -1.760602 -0.170905 3.978039
v -1.760602 0.136776 3.978039
v -1.760602 0.120231 0.206196
v -1.760601 -0.196158 0.232911
v -1.760602 0.131422 2.757469
v -1.760602 -0.178974 2.781384
v -1.760602 -0.182113 2.315922
v -1.760602 0.129292 2.271775
v -1.760602 0.126671 1.674178
v -1.760602 -0.186024 1.735820
v -1.915618 -0.182113 2.315922
v -1.915618 -0.178974 2.781384
v -1.915618 0.131422 2.757469
v -1.915618 0.129292 2.271775
v -1.956662 0.126670 1.674178
v -1.956662 0.120231 0.206196
v -1.956662 -0.196159 0.232911
v -1.956662 -0.186025 1.735820
v 0.874644 0.170357 3.978039
v 0.674378 0.274055 3.978039
v 0.461495 0.108353 3.978039
v 0.486272 -0.160640 3.978039
v 0.738869 -0.325582 3.978039
v 0.910602 -0.119762 3.978039
v -1.956662 0.126670 1.674178
v -1.956662 0.120231 0.206196
v -1.956662 -0.196159 0.232911
v -1.956662 -0.186025 1.735820
v 0.874644 0.170357 3.298396
v 0.674378 0.274055 3.298397
v 0.461495 0.108353 3.298396
v 0.486272 -0.160640 3.298396
v 0.738869 -0.325582 3.298397
v 0.910602 -0.119762 3.298396
v 1.436369 0.500208 3.731422
v -0.164597 0.500208 3.738214
v -0.162671 0.500208 3.869151
v 1.411671 0.500208 3.859250
v 1.436369 0.581841 3.731422
v -0.164597 0.581841 3.738214
v -0.162671 0.581841 3.869151
v 1.411671 0.581841 3.859250
v 1.524773 0.500208 -4.371184
v 1.519243 0.500208 -4.211801
v -0.050807 0.500208 -4.230333
v -0.042414 0.500208 -4.374937
v 1.524773 0.549533 -4.371184
v 1.519243 0.549533 -4.211801
v -0.050807 0.549533 -4.230333
v -0.042414 0.549533 -4.374937
v 0.783676 0.102015 -4.541370
v 0.281707 0.115248 -4.541370
v 0.235374 -0.162225 -4.541370
v 0.782002 -0.179142 -4.541370
v 0.783676 0.102015 -4.192843
v 0.281707 0.115248 -4.192843
v 0.235374 -0.162225 -4.192844
v 0.782002 -0.179142 -4.192843
vt 0.020381 0.345836
vt 0.507705 0.028967
vt 0.510948 0.336819
vt 0.010787 0.504763
vt 0.031060 0.631811
vt 0.022180 0.632320
vt 0.587848 0.817171
vt 0.644257 0.000000
vt 0.644257 0.817171
vt 0.582172 0.777974
vt 0.772473 0.794389
vt 0.757155 0.800323
vt 0.372344 0.935722
vt 0.373466 0.902730
vt 0.710403 0.950027
vt 0.151119 0.960828
vt 0.021840 0.980220
vt 0.021369 0.927874
vt 0.978574 0.971683
vt 0.894705 0.957990
vt 0.979916 0.965487
vt 0.891794 0.964675
vt 0.861560 0.955073
vt 0.894705 0.957990
vt 0.857262 0.961886
vt 0.891794 0.964675
vt 0.820252 0.951439
vt 0.861560 0.955073
vt 0.814774 0.958455
vt 0.814774 0.958455
vt 0.857262 0.961886
vt 0.713233 0.942024
vt 0.820252 0.951439
vt 0.713233 0.942024
vt 0.820252 0.951439
vt 0.713233 0.942024
vt 0.710403 0.950027
vt 0.754993 0.817503
vt 0.754993 0.817503
vt 0.964265 0.841525
vt 0.583187 0.838880
vt 0.768826 0.829830
vt 0.814774 0.958455
vt 0.710403 0.950027
vt 0.789398 0.804401
vt 0.788119 0.820258
vt 0.788119 0.820258
vt 0.768826 0.829830
vt 0.789398 0.804401
vt 0.772473 0.794389
vt 0.757155 0.800323
vt 0.528576 0.743157
vt 0.520943 0.631356
vt 0.528990 0.631596
vt 0.536079 0.864470
vt 0.528990 0.631596
vt 0.535487 0.518462
vt 0.520729 0.744838
vt 0.528576 0.743157
vt 0.520943 0.631356
vt 0.520729 0.744838
vt 0.022180 0.632320
vt 0.033251 0.748190
vt 0.023468 0.748519
vt 0.023468 0.748519
vt 0.033251 0.748190
vt 0.014101 0.866955
vt 0.031060 0.631811
vt 0.186576 0.961245
vt 0.153993 0.946270
vt 0.186552 0.946533
vt 0.186552 0.946533
vt 0.338063 0.923697
vt 0.338534 0.976042
vt 0.186576 0.961245
vt 0.153993 0.946270
vt 0.151119 0.960828
vt 0.017138 0.037984
vt 0.587848 0.000000
vt 0.960681 0.784023
vt 0.981352 0.958855
vt 0.976989 0.979002
vn 0.0000 -1.0000 0.0000
vn 0.0000 1.0000 -0.0000
vn 1.0000 -0.0000 0.0000
vn -0.0000 -0.0000 1.0000
vn -1.0000 -0.0000 -0.0000
vn 0.0000 0.0000 -1.0000
vn -0.0000 1.0000 -0.0044
vn 0.0000 0.0768 0.9970
vn -0.0000 -0.1404 -0.9901
vn 0.0000 -1.0000 0.0067
vn 0.0000 0.1934 0.9811
vn -0.0000 -0.0841 -0.9965
vn -0.9924 -0.1230 0.0000
vn 0.5467 0.8373 0.0000
vn 0.6142 -0.7891 0.0000
vn -0.7678 0.6407 0.0000
vn 0.9958 0.0917 0.0000
vn -0.4598 -0.8880 0.0000
vn 0.9818 0.0000 0.1897
vn -0.9999 0.0000 0.0147
vn 0.0063 0.0000 1.0000
vn -0.0042 0.0000 -1.0000
vn 0.9994 0.0000 0.0347
vn 0.0024 0.0000 -1.0000
vn -0.0118 0.0000 0.9999
vn -0.9983 0.0000 -0.0579
vn -1.0000 0.0060 -0.0000
vn 0.9863 -0.1647 0.0000
vn 0.0309 0.9995 0.0000
vn -0.0264 -0.9997 -0.0000
usemtl Material
s off
f 2/1/1 4/2/1 1/3/1
f 8/4/2 57/5/2 58/6/2
f 5/7/3 2/8/3 1/9/3
f 6/10/4 32/11/4 31/12/4
f 11/13/5 12/14/5 15/15/5
f 65/16/6 4/17/6 8/18/6
f 14/19/5 18/20/5 13/21/5
f 25/22/5 23/23/5 24/24/5
f 20/25/7 25/22/7 17/26/7
f 20/25/5 22/27/5 19/28/5
f 15/15/7 27/29/7 21/30/7
f 17/26/8 24/24/8 18/20/8
f 19/28/9 26/31/9 20/25/9
f 19/28/10 24/24/10 23/23/10
f 29/32/4 40/33/4 39/34/4
f 21/30/11 30/35/11 22/27/11
f 16/36/12 28/37/12 15/15/12
f 16/36/10 30/35/10 29/32/10
f 31/12/13 46/38/13 36/39/13
f 3/40/4 2/41/4 35/42/4
f 37/43/5 39/34/5 40/33/5
f 27/29/4 38/44/4 37/43/4
f 30/35/4 37/43/4 40/33/4
f 28/37/4 39/34/4 38/44/4
f 43/45/4 44/46/4 46/38/4
f 34/47/14 45/48/14 44/46/14
f 33/49/15 42/50/15 32/11/15
f 36/39/16 45/48/16 35/42/16
f 34/47/17 43/45/17 33/49/17
f 31/12/18 42/50/18 41/51/18
f 54/52/2 52/53/2 53/54/2
f 6/55/2 49/56/2 7/57/2
f 47/58/19 54/52/19 50/59/19
f 49/56/20 52/53/20 48/60/20
f 50/59/21 53/54/21 49/56/21
f 48/60/22 51/61/22 47/58/22
f 62/62/2 60/63/2 59/64/2
f 55/65/23 60/63/23 56/66/23
f 6/55/2 5/67/2 56/66/2
f 58/6/24 59/64/24 55/65/24
f 56/66/25 61/68/25 57/5/25
f 57/5/26 62/62/26 58/6/26
f 70/69/6 68/70/6 67/71/6
f 63/72/6 5/73/6 1/74/6
f 66/75/27 67/71/27 63/72/27
f 64/76/28 69/77/28 65/16/28
f 65/16/29 70/69/29 66/75/29
f 64/76/30 67/71/30 68/70/30
f 2/1/1 3/78/1 4/2/1
f 55/65/2 5/67/2 58/6/2
f 5/67/2 8/4/2 58/6/2
f 5/7/3 6/79/3 2/8/3
f 36/39/4 2/41/4 6/10/4
f 7/80/4 33/49/4 32/11/4
f 31/12/4 36/39/4 6/10/4
f 6/10/4 7/80/4 32/11/4
f 12/14/5 9/81/5 16/36/5
f 9/81/5 13/21/5 18/20/5
f 19/28/5 9/81/5 18/20/5
f 19/28/5 22/27/5 9/81/5
f 22/27/5 16/36/5 9/81/5
f 14/19/5 10/82/5 17/26/5
f 10/82/5 11/13/5 15/15/5
f 21/30/5 10/82/5 15/15/5
f 20/25/5 17/26/5 10/82/5
f 21/30/5 20/25/5 10/82/5
f 12/14/5 16/36/5 15/15/5
f 8/18/6 5/73/6 64/76/6
f 5/73/6 63/72/6 64/76/6
f 64/76/6 65/16/6 8/18/6
f 14/19/5 17/26/5 18/20/5
f 25/22/5 26/31/5 23/23/5
f 20/25/7 26/31/7 25/22/7
f 20/25/5 21/30/5 22/27/5
f 15/15/7 28/37/7 27/29/7
f 17/26/8 25/22/8 24/24/8
f 19/28/9 23/23/9 26/31/9
f 19/28/10 18/20/10 24/24/10
f 29/32/4 30/35/4 40/33/4
f 21/30/11 27/29/11 30/35/11
f 16/36/12 29/32/12 28/37/12
f 16/36/10 22/27/10 30/35/10
f 31/12/13 41/51/13 46/38/13
f 34/47/4 33/49/4 3/40/4
f 33/49/4 7/80/4 3/40/4
f 2/41/4 36/39/4 35/42/4
f 35/42/4 34/47/4 3/40/4
f 37/43/5 38/44/5 39/34/5
f 27/29/4 28/37/4 38/44/4
f 30/35/4 27/29/4 37/43/4
f 28/37/4 29/32/4 39/34/4
f 45/48/4 46/38/4 44/46/4
f 46/38/4 41/51/4 43/45/4
f 41/51/4 42/50/4 43/45/4
f 34/47/14 35/42/14 45/48/14
f 33/49/15 43/45/15 42/50/15
f 36/39/16 46/38/16 45/48/16
f 34/47/17 44/46/17 43/45/17
f 31/12/18 32/11/18 42/50/18
f 54/52/2 51/61/2 52/53/2
f 6/55/2 47/58/2 50/59/2
f 49/56/2 48/60/2 7/57/2
f 6/55/2 50/59/2 49/56/2
f 47/58/19 51/61/19 54/52/19
f 49/56/20 53/54/20 52/53/20
f 50/59/21 54/52/21 53/54/21
f 48/60/22 52/53/22 51/61/22
f 62/62/2 61/68/2 60/63/2
f 55/65/23 59/64/23 60/63/23
f 57/5/2 8/4/2 7/57/2
f 57/5/2 7/57/2 48/60/2
f 5/67/2 55/65/2 56/66/2
f 56/66/2 57/5/2 47/58/2
f 57/5/2 48/60/2 47/58/2
f 47/58/2 6/55/2 56/66/2
f 58/6/24 62/62/24 59/64/24
f 56/66/25 60/63/25 61/68/25
f 57/5/26 61/68/26 62/62/26
f 70/69/6 69/77/6 68/70/6
f 1/74/6 4/17/6 66/75/6
f 4/17/6 65/16/6 66/75/6
f 66/75/6 63/72/6 1/74/6
f 66/75/27 70/69/27 67/71/27
f 64/76/28 68/70/28 69/77/28
f 65/16/29 69/77/29 70/69/29
f 64/76/30 63/72/30 67/71/30
