# Blender v2.79 (sub 0) OBJ File: 'boat2.blend'
# www.blender.org
mtllib boat2_3dex_sailMain_sailup_onPower.mtl
o sailMain_sailup_onPower_Plane.003
v 0.010958 2.838893 6.184031
v 0.010958 3.058789 6.178553
v 0.010958 14.721407 -0.633597
v 0.010958 2.956263 -0.750966
v 0.010958 4.694807 -0.733623
v 0.010958 6.182581 -0.718780
v 0.010958 7.192091 -0.708710
v 0.010958 7.777682 -0.702868
v 0.010958 8.598713 -0.694677
v 0.010958 9.366238 -0.687020
v 0.010958 10.901756 -0.671702
v 0.010958 11.778458 -0.662956
v 0.010958 12.943201 -0.651336
v 0.610210 12.943201 0.405055
v 1.014029 11.778458 1.085384
v 1.171947 10.901756 1.597466
v 1.368911 9.366238 2.494365
v 1.368116 8.598713 2.942676
v 1.270032 7.777683 3.422241
v 1.171947 7.192091 3.764286
v 0.863947 6.182581 4.353941
v 0.531028 4.694807 5.222952
v 0.981152 7.777683 2.475785
v 0.430493 7.777682 0.671658
v 1.360981 9.366238 2.475786
v 0.590901 9.366238 0.671658
v 0.133653 4.694807 0.671657
v 0.291172 4.694807 2.475785
v 0.768456 12.486769 0.671658
v 0.698270 10.901756 0.671658
v 0.548131 6.182581 2.475786
v 0.244763 6.182581 0.671658
v 0.520760 8.598713 0.671658
v 1.193911 8.598713 2.475785
v 0.776663 11.778458 0.671658
v 1.364831 9.398045 2.475786
v 0.369239 7.192091 0.671658
v 0.837510 7.192091 2.475785
v -0.103152 2.838894 6.151428
v -0.103152 3.058789 6.145950
v -0.103152 14.721407 -0.666199
v -0.103152 2.956263 -0.783569
v -0.103152 4.694807 -0.766225
v -0.103152 6.182581 -0.751383
v -0.103152 7.192091 -0.741312
v -0.103152 7.777682 -0.735470
v -0.103152 8.598713 -0.727280
v -0.103152 9.366238 -0.719623
v -0.103152 10.901756 -0.704304
v -0.103152 11.778458 -0.695558
v -0.103152 12.943201 -0.683939
v 0.496100 12.943201 0.372453
v 0.899920 11.778458 1.052781
v 1.057838 10.901756 1.564864
v 1.254802 9.366238 2.461762
v 1.254007 8.598713 2.910074
v 1.155922 7.777683 3.389638
v 1.057838 7.192091 3.731683
v 0.749837 6.182581 4.321339
v 0.416919 4.694807 5.190350
v 0.867043 7.777683 2.443182
v 0.316384 7.777682 0.639055
v 1.246872 9.366238 2.443183
v 0.476791 9.366238 0.639055
v 0.019544 4.694807 0.639055
v 0.177063 4.694807 2.443182
v 0.654347 12.486769 0.639055
v 0.584160 10.901756 0.639055
v 0.434021 6.182581 2.443183
v 0.130654 6.182581 0.639055
v 0.406651 8.598713 0.639055
v 1.079802 8.598713 2.443182
v 0.662554 11.778458 0.639055
v 1.250722 9.398045 2.443184
v 0.255130 7.192091 0.639055
v 0.723401 7.192091 2.443182
vn 0.9609 -0.2640 -0.0839
vn 0.9163 -0.3696 -0.1541
vn 0.9248 -0.2951 -0.2400
vn 0.9199 -0.2739 -0.2808
vn 0.9178 -0.2010 -0.3424
vn 0.9141 -0.1106 -0.3902
vn 0.8853 -0.1051 -0.4530
vn 0.8673 0.0101 -0.4976
vn 0.8698 0.0049 -0.4934
vn 0.8648 -0.0773 -0.4962
vn 0.9105 -0.2359 -0.3397
vn 0.9320 -0.1025 -0.3477
vn 0.9722 -0.1679 -0.1635
vn 0.9835 -0.0734 -0.1654
vn 0.9018 -0.1963 -0.3849
vn 0.9165 -0.0838 -0.3912
vn 0.9327 -0.2674 -0.2421
vn 0.9611 -0.1185 -0.2495
vn 0.8885 -0.0621 -0.4546
vn 0.9312 -0.2284 -0.2842
vn 0.9517 -0.0995 -0.2905
vn 0.9962 0.0009 -0.0870
vn -0.9609 0.2640 0.0839
vn -0.9163 0.3696 0.1541
vn -0.9248 0.2951 0.2400
vn -0.9199 0.2739 0.2808
vn -0.9178 0.2010 0.3424
vn -0.9141 0.1106 0.3902
vn -0.8853 0.1051 0.4530
vn -0.8673 -0.0100 0.4976
vn -0.8698 -0.0049 0.4934
vn -0.8648 0.0773 0.4962
vn -0.9105 0.2359 0.3397
vn -0.9320 0.1025 0.3477
vn -0.9722 0.1679 0.1635
vn -0.9835 0.0734 0.1654
vn -0.9018 0.1963 0.3849
vn -0.9165 0.0838 0.3912
vn -0.9327 0.2674 0.2421
vn -0.9611 0.1185 0.2495
vn -0.8885 0.0621 0.4546
vn -0.9312 0.2284 0.2842
vn -0.9517 0.0995 0.2905
vn -0.9971 -0.0019 -0.0763
vn 0.2747 0.0096 -0.9615
vn -0.2308 0.5423 0.8079
vn -0.2487 0.4247 0.8705
vn -0.2332 0.5288 0.8161
vn -0.2490 0.4227 0.8714
vn -0.2431 0.4658 0.8508
vn -0.2304 0.5444 0.8066
vn -0.2445 0.4558 0.8558
vn 0.0048 -0.9998 -0.0169
vn -0.2431 0.4658 0.8509
vn -0.2746 0.0239 0.9613
vn -0.2395 0.4899 0.8383
vn -0.2362 0.5110 0.8265
vn -0.2348 0.5193 0.8217
vn 0.8902 0.0045 -0.4555
vn 0.9512 -0.1046 -0.2903
vn 0.9564 0.0029 -0.2919
vn 0.9935 -0.0742 -0.0867
vn 0.8673 0.0100 -0.4976
vn 0.9335 -0.0853 -0.3483
vn 0.9369 0.0035 -0.3496
vn 0.9789 -0.1207 -0.1646
vn 0.9862 0.0017 -0.1658
vn 0.9197 0.0039 -0.3926
vn 0.9630 -0.1007 -0.2500
vn 0.9679 0.0025 -0.2512
vn 0.9351 -0.3449 -0.0816
vn 0.9971 0.0019 0.0763
vn 0.9880 -0.1544 -0.0026
vn -0.8902 -0.0045 0.4555
vn -0.9512 0.1046 0.2903
vn -0.9564 -0.0029 0.2919
vn -0.9935 0.0742 0.0867
vn -0.9962 -0.0009 0.0870
vn -0.9335 0.0853 0.3483
vn -0.9369 -0.0035 0.3496
vn -0.9789 0.1207 0.1646
vn -0.9862 -0.0017 0.1658
vn -0.9197 -0.0039 0.3926
vn -0.9630 0.1007 0.2500
vn -0.9679 -0.0025 0.2512
vn -0.9351 0.3449 0.0816
vn -0.9880 0.1544 0.0026
vn -0.2746 0.0239 0.9612
vn -0.2361 0.5110 0.8265
usemtl None
s off
f 28//1 21//1 22//1
f 31//2 20//2 21//2
f 38//3 19//3 20//3
f 23//4 18//4 19//4
f 34//5 17//5 18//5
f 17//6 25//6 36//6
f 30//7 15//7 16//7
f 15//8 35//8 29//8
f 14//9 13//9 3//9
f 30//10 12//10 35//10
f 23//11 33//11 34//11
f 24//12 9//12 33//12
f 28//13 32//13 31//13
f 27//14 6//14 32//14
f 12//9 13//9 14//9
f 34//15 26//15 25//15
f 33//16 10//16 26//16
f 31//17 37//17 38//17
f 32//18 7//18 37//18
f 26//19 30//19 16//19
f 26//19 11//19 30//19
f 38//20 24//20 23//20
f 37//21 8//21 24//21
f 27//22 28//22 4//22
f 59//23 66//23 60//23
f 58//24 69//24 59//24
f 57//25 76//25 58//25
f 56//26 61//26 57//26
f 55//27 72//27 56//27
f 55//28 74//28 63//28
f 53//29 68//29 54//29
f 53//30 67//30 73//30
f 52//31 41//31 51//31
f 50//32 68//32 73//32
f 71//33 61//33 72//33
f 47//34 62//34 71//34
f 70//35 66//35 69//35
f 44//36 65//36 70//36
f 52//31 51//31 50//31
f 64//37 72//37 63//37
f 48//38 71//38 64//38
f 75//39 69//39 76//39
f 45//40 70//40 75//40
f 54//41 68//41 64//41
f 49//41 64//41 68//41
f 62//42 76//42 61//42
f 46//43 75//43 62//43
f 39//44 40//44 66//44
f 5//45 44//45 6//45
f 58//46 21//46 20//46
f 3//47 52//47 14//47
f 6//45 45//45 7//45
f 59//48 22//48 21//48
f 29//49 53//49 15//49
f 16//50 74//50 36//50
f 7//45 46//45 8//45
f 14//49 67//49 29//49
f 60//51 2//51 22//51
f 15//52 54//52 16//52
f 8//45 47//45 9//45
f 39//53 4//53 1//53
f 36//54 55//54 17//54
f 9//45 48//45 10//45
f 2//55 39//55 1//55
f 17//56 56//56 18//56
f 10//45 49//45 11//45
f 13//45 41//45 3//45
f 18//57 57//57 19//57
f 11//45 50//45 12//45
f 4//45 43//45 5//45
f 57//58 20//58 19//58
f 12//45 51//45 13//45
f 28//13 31//13 21//13
f 31//17 38//17 20//17
f 38//20 23//20 19//20
f 23//11 34//11 18//11
f 34//15 25//15 17//15
f 30//10 35//10 15//10
f 30//59 11//59 12//59
f 23//60 24//60 33//60
f 24//61 8//61 9//61
f 28//62 27//62 32//62
f 27//22 5//22 6//22
f 14//63 29//63 12//63
f 29//63 35//63 12//63
f 34//64 33//64 26//64
f 33//65 9//65 10//65
f 31//66 32//66 37//66
f 32//67 6//67 7//67
f 16//6 36//6 26//6
f 36//6 25//6 26//6
f 26//68 10//68 11//68
f 38//69 37//69 24//69
f 37//70 7//70 8//70
f 28//71 22//71 2//71
f 2//72 1//72 28//72
f 1//73 4//73 28//73
f 4//22 5//22 27//22
f 59//35 69//35 66//35
f 58//39 76//39 69//39
f 57//42 61//42 76//42
f 56//33 72//33 61//33
f 55//37 63//37 72//37
f 53//32 73//32 68//32
f 50//74 49//74 68//74
f 71//75 62//75 61//75
f 47//76 46//76 62//76
f 70//77 65//77 66//77
f 44//78 43//78 65//78
f 73//30 67//30 50//30
f 67//30 52//30 50//30
f 64//79 71//79 72//79
f 48//80 47//80 71//80
f 75//81 70//81 69//81
f 45//82 44//82 70//82
f 63//28 74//28 64//28
f 74//28 54//28 64//28
f 49//83 48//83 64//83
f 62//84 75//84 76//84
f 46//85 45//85 75//85
f 40//86 60//86 66//86
f 66//78 65//78 42//78
f 65//78 43//78 42//78
f 42//87 39//87 66//87
f 5//45 43//45 44//45
f 58//46 59//46 21//46
f 3//47 41//47 52//47
f 6//45 44//45 45//45
f 59//48 60//48 22//48
f 29//49 67//49 53//49
f 16//50 54//50 74//50
f 7//45 45//45 46//45
f 14//49 52//49 67//49
f 60//51 40//51 2//51
f 15//52 53//52 54//52
f 8//45 46//45 47//45
f 39//53 42//53 4//53
f 36//50 74//50 55//50
f 9//45 47//45 48//45
f 2//88 40//88 39//88
f 17//56 55//56 56//56
f 10//45 48//45 49//45
f 13//45 51//45 41//45
f 18//89 56//89 57//89
f 11//45 49//45 50//45
f 4//45 42//45 43//45
f 57//58 58//58 20//58
f 12//45 50//45 51//45
