# Blender v2.79 (sub 0) OBJ File: 'boat2.blend'
# www.blender.org
mtllib boat2_3dex_ruder.mtl
o ruder_Cylinder.000
v -0.096295 -0.297578 6.066939
v 0.091811 -0.297578 6.066939
v -0.019343 -0.184329 6.537204
v 0.148296 -0.294285 5.827966
v 0.006448 -0.291442 5.621642
v -0.135400 -0.294285 5.827965
v -0.096295 -2.106268 5.952692
v 0.091811 -2.106268 5.952692
v -0.019343 -2.100139 6.203326
v 0.148295 -2.106214 5.825328
v 0.006448 -2.106167 5.715364
v -0.135400 -2.106214 5.825327
vn 0.0000 -0.9997 0.0244
vn -0.9868 -0.0102 0.1613
vn 0.9136 -0.0256 0.4058
vn -0.0000 -1.0000 -0.0004
vn 0.8235 -0.0293 -0.5666
vn -0.9853 -0.0293 0.1683
vn -0.6127 0.0012 -0.7903
vn 0.9141 -0.0006 0.4054
vn 0.0000 0.9722 -0.2341
vn -0.0000 0.9999 0.0138
vn -0.9560 -0.0004 0.2935
vn 0.9700 -0.0417 0.2393
vn 0.6127 0.0012 -0.7903
vn -0.9557 -0.0186 0.2939
vn -0.8235 -0.0293 -0.5666
vn 0.9731 -0.0145 0.2298
usemtl None
s off
f 8//1 9//1 7//1
f 6//2 7//2 1//2
f 2//3 9//3 8//3
f 11//4 10//4 8//4
f 4//5 11//5 5//5
f 1//6 9//6 3//6
f 6//7 11//7 12//7
f 4//8 8//8 10//8
f 3//9 2//9 1//9
f 4//10 5//10 6//10
f 6//11 12//11 7//11
f 2//12 3//12 9//12
f 8//4 7//4 12//4
f 12//4 11//4 8//4
f 4//13 10//13 11//13
f 1//14 7//14 9//14
f 6//15 5//15 11//15
f 4//16 2//16 8//16
f 1//10 2//10 6//10
f 2//10 4//10 6//10
