# Blender v2.79 (sub 0) OBJ File: 'boat2.blend'
# www.blender.org
mtllib boat2_3dex_arrowGyro.mtl
o arrowGyro_Cube.001
v -1.000003 1.004123 6.445166
v -1.000003 3.747941 6.113548
v -1.000003 1.004123 4.445166
v -1.000003 2.260304 4.776784
v 0.999997 1.004123 6.445166
v 0.999997 3.747941 6.113548
v 0.999997 1.004123 4.445166
v 0.999997 2.260304 4.776784
v -1.000003 5.491864 4.090240
v -1.000003 3.648403 3.314577
v 0.999997 3.648403 3.314577
v 0.999997 5.491864 4.090240
v -1.000003 6.752721 0.880337
v -1.000003 4.752851 0.903031
v 0.999997 4.752851 0.903031
v 0.999997 6.752721 0.880337
v -1.000003 6.533926 -2.747702
v -1.000003 4.902169 -1.591256
v 0.999997 4.902169 -1.591256
v 0.999997 6.533926 -2.747702
v -1.000003 4.879369 -4.976989
v -1.000003 3.744358 -3.330249
v 0.999997 3.744358 -3.330249
v 0.999997 4.879369 -4.976989
v -2.064452 5.093109 -6.122466
v -2.064452 2.749936 -2.722855
v 2.064446 2.749936 -2.722855
v 2.064446 5.093109 -6.122466
v -0.236366 2.425797 -5.740654
v -0.236366 2.157522 -5.351425
v 0.236361 2.157522 -5.351425
v 0.236361 2.425797 -5.740654
vn -1.0000 0.0000 0.0000
vn 0.0000 0.2552 -0.9669
vn 1.0000 0.0000 0.0000
vn 0.0000 0.1200 0.9928
vn 0.0000 -1.0000 0.0000
vn 0.0000 0.9308 0.3656
vn 0.0000 0.7575 0.6529
vn 0.0000 -0.7252 -0.6885
vn 0.0000 -0.9092 -0.4164
vn 0.0000 0.9982 -0.0602
vn 0.0000 -0.9982 -0.0598
vn 0.0000 0.9830 0.1834
vn 0.0000 0.8030 -0.5960
vn 0.0000 -0.8324 0.5542
vn 0.7346 -0.5586 -0.3850
vn 0.0000 0.5213 0.8534
vn 0.4068 0.7521 0.5184
vn -0.4068 0.7521 0.5184
vn 0.0000 -0.8234 -0.5675
vn -0.7346 -0.5586 -0.3850
vn 0.0000 -0.1417 -0.9899
vn 0.0000 -0.9755 0.2199
usemtl None
s off
f 1//1 4//1 3//1
f 4//2 7//2 3//2
f 8//3 5//3 7//3
f 6//4 1//4 5//4
f 7//5 1//5 3//5
f 2//1 10//1 4//1
f 12//6 13//6 9//6
f 6//7 9//7 2//7
f 4//8 11//8 8//8
f 6//3 11//3 12//3
f 16//3 19//3 20//3
f 10//9 15//9 11//9
f 12//3 15//3 16//3
f 9//1 14//1 10//1
f 17//1 22//1 18//1
f 13//1 18//1 14//1
f 16//10 17//10 13//10
f 14//11 19//11 15//11
f 24//12 25//12 21//12
f 20//13 21//13 17//13
f 18//14 23//14 19//14
f 20//3 23//3 24//3
f 27//15 32//15 28//15
f 22//16 27//16 23//16
f 23//17 28//17 24//17
f 21//18 26//18 22//18
f 30//19 32//19 31//19
f 25//20 30//20 26//20
f 28//21 29//21 25//21
f 26//22 31//22 27//22
f 1//1 2//1 4//1
f 4//2 8//2 7//2
f 8//3 6//3 5//3
f 6//4 2//4 1//4
f 7//5 5//5 1//5
f 2//1 9//1 10//1
f 12//6 16//6 13//6
f 6//7 12//7 9//7
f 4//8 10//8 11//8
f 6//3 8//3 11//3
f 16//3 15//3 19//3
f 10//9 14//9 15//9
f 12//3 11//3 15//3
f 9//1 13//1 14//1
f 17//1 21//1 22//1
f 13//1 17//1 18//1
f 16//10 20//10 17//10
f 14//11 18//11 19//11
f 24//12 28//12 25//12
f 20//13 24//13 21//13
f 18//14 22//14 23//14
f 20//3 19//3 23//3
f 27//15 31//15 32//15
f 22//16 26//16 27//16
f 23//17 27//17 28//17
f 21//18 25//18 26//18
f 30//19 29//19 32//19
f 25//20 29//20 30//20
f 28//21 32//21 29//21
f 26//22 30//22 31//22
