# Blender v2.79 (sub 0) OBJ File: 'boat2.blend'
# www.blender.org
mtllib boat2_3dex_sailGenoa_onPower.mtl
o sailGenoa_onPower_Plane.004
v -0.012517 1.835900 -1.470295
v -0.012517 1.972025 -1.310535
v -0.012517 1.381389 -6.838856
v -0.012516 12.748251 -1.543514
v -0.012516 10.836227 -2.434247
v -0.012516 9.555444 -3.030910
v -0.012517 7.555449 -3.962623
v -0.012517 5.925485 -4.721953
v -0.012517 3.690997 -5.762907
v -0.012517 2.679358 -6.234188
v 0.096749 2.591946 -1.323558
v 0.411498 3.612351 -1.344523
v 0.956811 5.866203 -1.391353
v 1.101272 7.510303 -1.426395
v 1.056440 9.527669 -1.470167
v 0.775724 10.819591 -1.499074
v 0.087193 1.842506 -1.474082
v 0.087193 1.978632 -1.314322
v 0.087193 1.387996 -6.842644
v 0.087193 12.754858 -1.547303
v 0.087193 10.842834 -2.438034
v 0.087193 9.562050 -3.034698
v 0.087193 7.562056 -3.966411
v 0.087193 5.932092 -4.725741
v 0.087193 3.697604 -5.766695
v 0.087193 2.685965 -6.237975
v 0.196458 2.598553 -1.327345
v 0.511208 3.618957 -1.348311
v 1.056520 5.872809 -1.395141
v 1.200982 7.516910 -1.430184
v 1.156150 9.534276 -1.473955
v 0.875434 10.826198 -1.502862
vt 0.685390 0.133892
vt 0.305468 0.030563
vt 0.334792 0.205598
vt 0.662157 0.211742
vt 0.353034 0.281304
vt 0.610840 0.383697
vt 0.373654 0.389802
vt 0.573407 0.509130
vt 0.394492 0.511093
vt 0.527475 0.663039
vt 0.415136 0.662483
vt 0.498061 0.761601
vt 0.429317 0.762326
vt 0.437394 0.980173
vt 0.335022 0.206092
vt 0.305697 0.031056
vt 0.685620 0.134386
vt 0.662387 0.212236
vt 0.611070 0.384190
vt 0.353264 0.281798
vt 0.573636 0.509624
vt 0.373884 0.390296
vt 0.527705 0.663532
vt 0.394721 0.511587
vt 0.498291 0.762095
vt 0.415365 0.662977
vt 0.437624 0.980667
vt 0.429547 0.762819
vt 0.715428 0.034501
vt 0.715199 0.034007
vt 0.296990 0.041243
vt 0.297220 0.041737
vn -0.9901 0.1383 0.0245
vn -0.9997 -0.0103 0.0221
vn -0.9945 -0.0441 0.0947
vn -0.9529 -0.1281 0.2750
vn -0.9014 -0.1829 0.3926
vn -0.8002 -0.2532 0.5436
vn -0.7351 -0.2863 0.6145
vn 0.0035 -0.0216 -0.9998
vn 0.9901 -0.1383 -0.0245
vn 0.9997 0.0103 -0.0221
vn 0.9945 0.0441 -0.0947
vn 0.9529 0.1281 -0.2750
vn 0.9014 0.1829 -0.3926
vn 0.8002 0.2532 -0.5436
vn 0.7351 0.2863 -0.6145
vn -0.0035 0.0216 0.9998
vn -0.0623 0.4215 -0.9047
vn 0.0374 0.0090 0.9993
vn 0.0372 0.0118 0.9992
vn 0.0357 0.0346 0.9988
vn 0.0691 -0.9941 0.0842
vn 0.0366 0.0205 0.9991
vn 0.0749 -0.7590 0.6467
vn 0.0370 0.0145 0.9992
vn -1.0000 0.0000 -0.0000
vn -0.9751 0.1688 -0.1439
vn -0.9506 0.2952 0.0965
vn -0.9330 0.2315 0.2757
vn -0.9114 0.0886 0.4018
vn -0.8251 -0.0061 0.5650
vn -0.7572 -0.1503 0.6356
vn 0.9751 -0.1688 0.1439
vn 1.0000 -0.0000 0.0000
vn 0.9506 -0.2952 -0.0965
vn 0.9330 -0.2315 -0.2757
vn 0.9114 -0.0886 -0.4018
vn 0.8251 0.0061 -0.5650
vn 0.7572 0.1503 -0.6356
usemtl Material.002
s off
f 10/1/1 1/2/1 11/3/1
f 11/3/2 9/4/2 10/1/2
f 12/5/3 8/6/3 9/4/3
f 13/7/4 7/8/4 8/6/4
f 14/9/5 6/10/5 7/8/5
f 15/11/6 5/12/6 6/10/6
f 5/12/7 16/13/7 4/14/7
f 16/13/8 15/11/8 4/14/8
f 14/9/8 13/7/8 15/11/8
f 27/15/9 17/16/9 26/17/9
f 25/18/10 27/15/10 26/17/10
f 24/19/11 28/20/11 25/18/11
f 23/21/12 29/22/12 24/19/12
f 22/23/13 30/24/13 23/21/13
f 21/25/14 31/26/14 22/23/14
f 21/25/15 20/27/15 32/28/15
f 32/28/16 20/27/16 31/26/16
f 30/24/16 31/26/16 29/22/16
f 10/1/17 19/29/17 3/30/17
f 27/15/18 12/5/18 11/3/18
f 4/14/17 21/25/17 5/12/17
f 28/20/19 13/7/19 12/5/19
f 5/12/17 22/23/17 6/10/17
f 6/10/17 23/21/17 7/8/17
f 7/8/17 24/19/17 8/6/17
f 15/11/20 20/27/20 4/14/20
f 3/30/21 17/16/21 1/2/21
f 8/6/17 25/18/17 9/4/17
f 29/22/22 15/11/22 13/7/22
f 17/16/23 2/31/23 1/2/23
f 9/4/17 26/17/17 10/1/17
f 18/32/24 11/3/24 2/31/24
f 3/30/25 1/2/25 10/1/25
f 1/2/26 2/31/26 11/3/26
f 11/3/27 12/5/27 9/4/27
f 12/5/28 13/7/28 8/6/28
f 13/7/29 14/9/29 7/8/29
f 14/9/30 15/11/30 6/10/30
f 15/11/31 16/13/31 5/12/31
f 18/32/32 17/16/32 27/15/32
f 17/16/33 19/29/33 26/17/33
f 25/18/34 28/20/34 27/15/34
f 24/19/35 29/22/35 28/20/35
f 23/21/36 30/24/36 29/22/36
f 22/23/37 31/26/37 30/24/37
f 21/25/38 32/28/38 31/26/38
f 10/1/17 26/17/17 19/29/17
f 27/15/18 28/20/18 12/5/18
f 4/14/17 20/27/17 21/25/17
f 28/20/19 29/22/19 13/7/19
f 5/12/17 21/25/17 22/23/17
f 6/10/17 22/23/17 23/21/17
f 7/8/17 23/21/17 24/19/17
f 15/11/20 31/26/20 20/27/20
f 3/30/21 19/29/21 17/16/21
f 8/6/17 24/19/17 25/18/17
f 29/22/22 31/26/22 15/11/22
f 17/16/23 18/32/23 2/31/23
f 9/4/17 25/18/17 26/17/17
f 18/32/24 27/15/24 11/3/24
