# Blender v2.79 (sub 0) OBJ File: 'gamePad.blend'
# www.blender.org
mtllib gamePad_button.mtl
o Circle
v 0.382792 0.000001 0.906112
v 0.353071 0.000001 0.909039
v 0.324492 0.000001 0.917709
v 0.298153 0.000001 0.931787
v 0.275067 0.000001 0.950733
v 0.256121 0.000001 0.973819
v 0.242043 0.000001 1.000158
v 0.233373 0.000001 1.028737
v 0.230446 0.000001 1.058458
v 0.233373 0.000001 1.088179
v 0.242043 0.000001 1.116759
v 0.256121 0.000001 1.143097
v 0.275067 0.000001 1.166183
v 0.298153 0.000001 1.185129
v 0.324492 0.000001 1.199208
v 0.353071 0.000001 1.207877
v 0.382792 0.000001 1.210804
v 0.412514 0.000001 1.207877
v 0.441093 0.000001 1.199208
v 0.467431 0.000001 1.185129
v 0.490517 0.000001 1.166183
v 0.509464 0.000001 1.143097
v 0.523542 0.000001 1.116758
v 0.532211 0.000001 1.088179
v 0.535138 0.000001 1.058458
v 0.532211 0.000001 1.028737
v 0.523542 0.000001 1.000158
v 0.509463 0.000001 0.973819
v 0.490517 0.000001 0.950733
v 0.467431 0.000001 0.931787
v 0.441092 0.000001 0.917709
v 0.412513 0.000001 0.909039
v 0.382792 0.080978 0.906112
v 0.353071 0.080978 0.909039
v 0.324492 0.080978 0.917709
v 0.298153 0.080978 0.931787
v 0.275067 0.080978 0.950733
v 0.256121 0.080978 0.973819
v 0.242043 0.080978 1.000158
v 0.233373 0.080978 1.028737
v 0.230446 0.080978 1.058458
v 0.233373 0.080978 1.088179
v 0.242043 0.080978 1.116759
v 0.256121 0.080978 1.143097
v 0.275067 0.080978 1.166183
v 0.298153 0.080978 1.185129
v 0.324492 0.080978 1.199208
v 0.353071 0.080978 1.207877
v 0.382792 0.080978 1.210804
v 0.412514 0.080978 1.207877
v 0.441093 0.080978 1.199208
v 0.467431 0.080978 1.185129
v 0.490517 0.080978 1.166183
v 0.509464 0.080978 1.143097
v 0.523542 0.080978 1.116758
v 0.532211 0.080978 1.088179
v 0.535138 0.080978 1.058458
v 0.532211 0.080978 1.028737
v 0.523542 0.080978 1.000158
v 0.509463 0.080978 0.973819
v 0.490517 0.080978 0.950733
v 0.467431 0.080978 0.931787
v 0.441092 0.080978 0.917709
v 0.412513 0.080978 0.909039
v 0.382792 0.090823 0.927445
v 0.357233 0.090823 0.929963
v 0.332656 0.090823 0.937418
v 0.310005 0.090823 0.949525
v 0.290152 0.090823 0.965818
v 0.273859 0.090823 0.985671
v 0.261752 0.090823 1.008322
v 0.254297 0.090823 1.032899
v 0.251779 0.090823 1.058458
v 0.254297 0.090823 1.084018
v 0.261752 0.090823 1.108595
v 0.273859 0.090823 1.131245
v 0.290152 0.090823 1.151098
v 0.310005 0.090823 1.167391
v 0.332656 0.090823 1.179498
v 0.357233 0.090823 1.186954
v 0.382792 0.090823 1.189471
v 0.408352 0.090823 1.186954
v 0.432929 0.090823 1.179498
v 0.455579 0.090823 1.167391
v 0.475432 0.090823 1.151098
v 0.491725 0.090823 1.131245
v 0.503832 0.090823 1.108595
v 0.511288 0.090823 1.084017
v 0.513805 0.090823 1.058458
v 0.511288 0.090823 1.032899
v 0.503832 0.090823 1.008322
v 0.491725 0.090823 0.985671
v 0.475432 0.090823 0.965818
v 0.455579 0.090823 0.949525
v 0.432929 0.090823 0.937418
v 0.408351 0.090823 0.929963
v 0.382792 0.082109 0.984005
v 0.368267 0.082109 0.985436
v 0.354300 0.082109 0.989673
v 0.341428 0.082109 0.996553
v 0.330146 0.082109 1.005812
v 0.320887 0.082109 1.017094
v 0.314007 0.082109 1.029966
v 0.309770 0.082109 1.043933
v 0.308339 0.082109 1.058458
v 0.309770 0.082109 1.072983
v 0.314007 0.082109 1.086950
v 0.320887 0.082109 1.099822
v 0.330146 0.082109 1.111104
v 0.341428 0.082109 1.120363
v 0.354300 0.082109 1.127244
v 0.368267 0.082109 1.131480
v 0.382792 0.082109 1.132911
v 0.397317 0.082109 1.131480
v 0.411284 0.082109 1.127244
v 0.424156 0.082109 1.120363
v 0.435438 0.082109 1.111104
v 0.444697 0.082109 1.099822
v 0.451578 0.082109 1.086950
v 0.455814 0.082109 1.072983
v 0.457245 0.082109 1.058458
v 0.455814 0.082109 1.043933
v 0.451578 0.082109 1.029966
v 0.444697 0.082109 1.017094
v 0.435438 0.082109 1.005812
v 0.424156 0.082109 0.996553
v 0.411284 0.082109 0.989673
v 0.397317 0.082109 0.985436
vn 0.0000 -1.0000 -0.0000
vn 0.3710 0.9072 -0.1983
vn -0.7730 0.0000 -0.6344
vn 0.0980 0.0000 -0.9952
vn 0.4714 0.0000 0.8819
vn -0.8819 0.0000 -0.4714
vn 0.6344 0.0000 0.7730
vn -0.9569 0.0000 -0.2903
vn 0.7730 0.0000 0.6344
vn -0.9952 0.0000 -0.0980
vn 0.8819 0.0000 0.4714
vn -0.9952 0.0000 0.0980
vn 0.9569 0.0000 0.2903
vn -0.9569 0.0000 0.2903
vn 0.9952 0.0000 0.0980
vn -0.8819 0.0000 0.4714
vn 0.9952 0.0000 -0.0980
vn -0.7730 0.0000 0.6344
vn 0.9569 0.0000 -0.2903
vn -0.6344 0.0000 0.7730
vn 0.8819 0.0000 -0.4714
vn -0.4714 0.0000 0.8819
vn -0.0980 0.0000 -0.9952
vn 0.7730 0.0000 -0.6344
vn -0.2903 0.0000 0.9569
vn -0.2903 0.0000 -0.9569
vn 0.6344 0.0000 -0.7730
vn -0.0980 0.0000 0.9952
vn -0.4714 0.0000 -0.8819
vn 0.4714 0.0000 -0.8819
vn 0.0980 0.0000 0.9952
vn -0.6344 0.0000 -0.7730
vn 0.2903 0.0000 -0.9569
vn 0.2903 0.0000 0.9569
vn 0.0721 0.9882 0.1349
vn -0.1983 0.9072 0.3710
vn -0.0412 0.9072 -0.4187
vn 0.3252 0.9072 -0.2669
vn -0.1221 0.9072 0.4026
vn -0.1221 0.9072 -0.4026
vn 0.2669 0.9072 -0.3252
vn -0.0412 0.9072 0.4187
vn -0.1983 0.9072 -0.3710
vn 0.1983 0.9072 -0.3710
vn 0.0412 0.9072 0.4187
vn -0.2669 0.9072 -0.3252
vn 0.1221 0.9072 -0.4026
vn 0.1221 0.9072 0.4026
vn -0.3252 0.9072 -0.2669
vn 0.0412 0.9072 -0.4187
vn 0.1983 0.9072 0.3710
vn -0.3710 0.9072 -0.1983
vn 0.2669 0.9072 0.3252
vn -0.4026 0.9072 -0.1221
vn 0.3252 0.9072 0.2669
vn -0.4187 0.9072 -0.0412
vn 0.3710 0.9072 0.1983
vn -0.4187 0.9072 0.0412
vn 0.4026 0.9072 0.1221
vn -0.4026 0.9072 0.1221
vn 0.4187 0.9072 0.0412
vn -0.3710 0.9072 0.1983
vn 0.4187 0.9072 -0.0412
vn -0.3252 0.9072 0.2669
vn 0.4026 0.9072 -0.1221
vn -0.2669 0.9072 0.3252
vn 0.0000 1.0000 0.0000
vn -0.0721 0.9882 0.1349
vn -0.0150 0.9882 -0.1523
vn 0.0971 0.9882 0.1183
vn -0.0444 0.9882 0.1464
vn -0.0444 0.9882 -0.1464
vn 0.1183 0.9882 0.0971
vn -0.0150 0.9882 0.1523
vn -0.0721 0.9882 -0.1349
vn 0.1349 0.9882 0.0721
vn -0.0971 0.9882 -0.1183
vn 0.1464 0.9882 0.0444
vn -0.1183 0.9882 -0.0971
vn 0.1523 0.9882 0.0150
vn -0.1349 0.9882 -0.0721
vn 0.1523 0.9882 -0.0150
vn -0.1464 0.9882 -0.0444
vn 0.1464 0.9882 -0.0444
vn -0.1523 0.9882 -0.0150
vn 0.1349 0.9882 -0.0721
vn -0.1523 0.9882 0.0150
vn 0.1183 0.9882 -0.0971
vn -0.1464 0.9882 0.0444
vn 0.0971 0.9882 -0.1183
vn -0.1349 0.9882 0.0721
vn 0.0721 0.9882 -0.1349
vn 0.0150 0.9882 0.1523
vn -0.1183 0.9882 0.0971
vn 0.0444 0.9882 -0.1464
vn 0.0444 0.9882 0.1464
vn -0.0971 0.9882 0.1183
vn 0.0150 0.9882 -0.1523
usemtl Material.001
s off
f 3//1 27//1 19//1
f 60//2 91//2 59//2
f 6//3 37//3 5//3
f 1//4 64//4 32//4
f 20//5 51//5 19//5
f 7//6 38//6 6//6
f 21//7 52//7 20//7
f 8//8 39//8 7//8
f 22//9 53//9 21//9
f 9//10 40//10 8//10
f 23//11 54//11 22//11
f 10//12 41//12 9//12
f 24//13 55//13 23//13
f 11//14 42//14 10//14
f 25//15 56//15 24//15
f 12//16 43//16 11//16
f 26//17 57//17 25//17
f 13//18 44//18 12//18
f 27//19 58//19 26//19
f 14//20 45//20 13//20
f 28//21 59//21 27//21
f 15//22 46//22 14//22
f 2//23 33//23 1//23
f 29//24 60//24 28//24
f 16//25 47//25 15//25
f 3//26 34//26 2//26
f 30//27 61//27 29//27
f 17//28 48//28 16//28
f 4//29 35//29 3//29
f 31//30 62//30 30//30
f 18//31 49//31 17//31
f 5//32 36//32 4//32
f 32//33 63//33 31//33
f 19//34 50//34 18//34
f 68//35 99//35 67//35
f 46//36 79//36 78//36
f 34//37 65//37 33//37
f 61//38 92//38 60//38
f 48//39 79//39 47//39
f 34//40 67//40 66//40
f 62//41 93//41 61//41
f 49//42 80//42 48//42
f 36//43 67//43 35//43
f 63//44 94//44 62//44
f 50//45 81//45 49//45
f 37//46 68//46 36//46
f 63//47 96//47 95//47
f 50//48 83//48 82//48
f 37//49 70//49 69//49
f 33//50 96//50 64//50
f 51//51 84//51 83//51
f 39//52 70//52 38//52
f 53//53 84//53 52//53
f 39//54 72//54 71//54
f 54//55 85//55 53//55
f 40//56 73//56 72//56
f 54//57 87//57 86//57
f 42//58 73//58 41//58
f 55//59 88//59 87//59
f 43//60 74//60 42//60
f 57//61 88//61 56//61
f 43//62 76//62 75//62
f 58//63 89//63 57//63
f 45//64 76//64 44//64
f 58//65 91//65 90//65
f 45//66 78//66 77//66
f 105//67 113//67 121//67
f 95//68 126//68 94//68
f 82//69 113//69 81//69
f 69//70 100//70 68//70
f 95//71 128//71 127//71
f 82//72 115//72 114//72
f 69//73 102//73 101//73
f 65//74 128//74 96//74
f 84//75 115//75 83//75
f 71//76 102//76 70//76
f 85//77 116//77 84//77
f 71//78 104//78 103//78
f 86//79 117//79 85//79
f 72//80 105//80 104//80
f 87//81 118//81 86//81
f 73//82 106//82 105//82
f 87//83 120//83 119//83
f 75//84 106//84 74//84
f 89//85 120//85 88//85
f 75//86 108//86 107//86
f 90//87 121//87 89//87
f 77//88 108//88 76//88
f 90//89 123//89 122//89
f 77//90 110//90 109//90
f 91//91 124//91 123//91
f 78//92 111//92 110//92
f 66//93 97//93 65//93
f 93//94 124//94 92//94
f 80//95 111//95 79//95
f 66//96 99//96 98//96
f 94//97 125//97 93//97
f 81//98 112//98 80//98
f 3//1 2//1 31//1
f 2//1 1//1 31//1
f 1//1 32//1 31//1
f 31//1 30//1 29//1
f 29//1 28//1 27//1
f 27//1 26//1 23//1
f 26//1 25//1 23//1
f 25//1 24//1 23//1
f 23//1 22//1 21//1
f 21//1 20//1 19//1
f 19//1 18//1 17//1
f 17//1 16//1 15//1
f 15//1 14//1 13//1
f 13//1 12//1 11//1
f 11//1 10//1 9//1
f 9//1 8//1 11//1
f 8//1 7//1 11//1
f 7//1 6//1 5//1
f 5//1 4//1 3//1
f 31//1 29//1 27//1
f 23//1 21//1 27//1
f 21//1 19//1 27//1
f 19//1 17//1 11//1
f 17//1 15//1 11//1
f 15//1 13//1 11//1
f 7//1 5//1 3//1
f 3//1 31//1 27//1
f 11//1 7//1 19//1
f 7//1 3//1 19//1
f 60//2 92//2 91//2
f 6//3 38//3 37//3
f 1//4 33//4 64//4
f 20//5 52//5 51//5
f 7//6 39//6 38//6
f 21//7 53//7 52//7
f 8//8 40//8 39//8
f 22//9 54//9 53//9
f 9//10 41//10 40//10
f 23//11 55//11 54//11
f 10//12 42//12 41//12
f 24//13 56//13 55//13
f 11//14 43//14 42//14
f 25//15 57//15 56//15
f 12//16 44//16 43//16
f 26//17 58//17 57//17
f 13//18 45//18 44//18
f 27//19 59//19 58//19
f 14//20 46//20 45//20
f 28//21 60//21 59//21
f 15//22 47//22 46//22
f 2//23 34//23 33//23
f 29//24 61//24 60//24
f 16//25 48//25 47//25
f 3//26 35//26 34//26
f 30//27 62//27 61//27
f 17//28 49//28 48//28
f 4//29 36//29 35//29
f 31//30 63//30 62//30
f 18//31 50//31 49//31
f 5//32 37//32 36//32
f 32//33 64//33 63//33
f 19//34 51//34 50//34
f 68//35 100//35 99//35
f 46//36 47//36 79//36
f 34//37 66//37 65//37
f 61//38 93//38 92//38
f 48//39 80//39 79//39
f 34//40 35//40 67//40
f 62//41 94//41 93//41
f 49//42 81//42 80//42
f 36//43 68//43 67//43
f 63//44 95//44 94//44
f 50//45 82//45 81//45
f 37//46 69//46 68//46
f 63//47 64//47 96//47
f 50//48 51//48 83//48
f 37//49 38//49 70//49
f 33//50 65//50 96//50
f 51//51 52//51 84//51
f 39//52 71//52 70//52
f 53//53 85//53 84//53
f 39//54 40//54 72//54
f 54//55 86//55 85//55
f 40//56 41//56 73//56
f 54//57 55//57 87//57
f 42//58 74//58 73//58
f 55//59 56//59 88//59
f 43//60 75//60 74//60
f 57//61 89//61 88//61
f 43//62 44//62 76//62
f 58//63 90//63 89//63
f 45//64 77//64 76//64
f 58//65 59//65 91//65
f 45//66 46//66 78//66
f 97//67 98//67 101//67
f 98//67 99//67 101//67
f 99//67 100//67 101//67
f 101//67 102//67 103//67
f 103//67 104//67 105//67
f 105//67 106//67 107//67
f 107//67 108//67 109//67
f 109//67 110//67 111//67
f 111//67 112//67 113//67
f 113//67 114//67 117//67
f 114//67 115//67 117//67
f 115//67 116//67 117//67
f 117//67 118//67 121//67
f 118//67 119//67 121//67
f 119//67 120//67 121//67
f 121//67 122//67 125//67
f 122//67 123//67 125//67
f 123//67 124//67 125//67
f 125//67 126//67 127//67
f 127//67 128//67 97//67
f 101//67 103//67 105//67
f 105//67 107//67 113//67
f 107//67 109//67 113//67
f 109//67 111//67 113//67
f 125//67 127//67 121//67
f 127//67 97//67 121//67
f 97//67 101//67 105//67
f 113//67 117//67 121//67
f 97//67 105//67 121//67
f 95//68 127//68 126//68
f 82//69 114//69 113//69
f 69//70 101//70 100//70
f 95//71 96//71 128//71
f 82//72 83//72 115//72
f 69//73 70//73 102//73
f 65//74 97//74 128//74
f 84//75 116//75 115//75
f 71//76 103//76 102//76
f 85//77 117//77 116//77
f 71//78 72//78 104//78
f 86//79 118//79 117//79
f 72//80 73//80 105//80
f 87//81 119//81 118//81
f 73//82 74//82 106//82
f 87//83 88//83 120//83
f 75//84 107//84 106//84
f 89//85 121//85 120//85
f 75//86 76//86 108//86
f 90//87 122//87 121//87
f 77//88 109//88 108//88
f 90//89 91//89 123//89
f 77//90 78//90 110//90
f 91//91 92//91 124//91
f 78//92 79//92 111//92
f 66//93 98//93 97//93
f 93//94 125//94 124//94
f 80//95 112//95 111//95
f 66//96 67//96 99//96
f 94//97 126//97 125//97
f 81//98 113//98 112//98
