# Blender v2.79 (sub 0) OBJ File: ''
# www.blender.org
mtllib x-axis.mtl
o Text_CUText
v 126.786255 11.364327 -0.000002
v 122.820351 11.364327 -0.000002
v 115.661560 2.625893 -0.000001
v 108.469154 11.364327 -0.000002
v 104.469643 11.364327 -0.000002
v 113.644997 0.306847 -0.000001
v 103.763840 -11.557260 0.000000
v 107.763359 -11.557260 0.000000
v 115.661560 -2.079419 -0.000001
v 123.458931 -11.557260 0.000000
v 127.424835 -11.557260 0.000000
v 117.644508 0.306847 -0.000001
v 126.786255 11.364327 7.456451
v 122.820351 11.364327 7.456451
v 115.661560 2.625894 7.456452
v 108.469154 11.364327 7.456451
v 104.469643 11.364327 7.456451
v 113.644997 0.306848 7.456452
v 103.763840 -11.557259 7.456453
v 107.763359 -11.557259 7.456453
v 115.661560 -2.079418 7.456452
v 123.458931 -11.557259 7.456453
v 127.424835 -11.557259 7.456453
v 117.644508 0.306848 7.456452
v 79.776001 -0.441701 3.109300
v 79.776001 7.695901 -5.028299
v 79.776001 -0.441701 -8.399000
v 79.776001 11.066598 3.109300
v 79.776001 7.695897 11.246900
v 79.776001 -0.441701 14.617600
v 79.776001 -8.579302 11.246899
v 79.776001 -11.950100 3.109299
v 79.776001 -8.579301 -5.028300
v 100.362701 -0.441701 3.109300
v 79.714905 -1.173601 3.639499
v -3.603096 -1.173600 3.639499
v -3.603096 -1.173600 1.812400
v 79.714905 -1.173601 1.812400
v 79.714905 0.288098 3.639499
v 79.714905 0.288098 1.812400
v -3.603096 0.288099 1.812400
v -3.603096 0.288099 3.639499
vt 0.000000 0.000000
vt 0.000000 0.000000
vt 0.000000 0.000000
vt 0.000000 0.000000
vt 0.000000 0.000000
vt 0.000000 0.000000
vt 0.000000 0.000000
vt 0.000000 0.000000
vt 0.000000 0.000000
vt 0.000000 0.000000
vt 0.000000 0.000000
vt 0.000000 0.000000
vt 0.000000 0.000000
vt 0.000000 0.000000
vt 0.000000 0.000000
vt 0.000000 0.000000
vt 0.000000 0.000000
vt 0.000000 0.000000
vt 0.000000 0.000000
vt 0.000000 0.000000
vt 0.000000 0.000000
vt 0.000000 0.000000
vt 0.000000 0.000000
vt 0.000000 0.000000
vt 0.500000 0.500000
vt 0.853600 0.853600
vt 1.000000 0.500000
vt 0.500000 1.000000
vt 0.146400 0.853600
vt 0.000000 0.500000
vt 0.146400 0.146400
vt 0.500000 0.000000
vt 0.853600 0.146400
vt 0.500000 0.500000
vt 0.477000 0.468200
vt 0.477000 0.468200
vt 0.556300 0.468200
vt 0.556300 0.468200
vt 0.477000 0.531700
vt 0.556300 0.531700
vt 0.556300 0.531700
vt 0.477000 0.531700
vn 0.0000 -0.0000 -1.0000
vn 0.0000 0.0000 1.0000
vn -0.7722 -0.6353 0.0000
vn -0.7684 0.6400 -0.0000
vn 0.7707 -0.6372 0.0000
vn 0.0000 -1.0000 0.0000
vn 0.0000 1.0000 0.0000
vn 0.7721 0.6355 -0.0000
vn -0.7736 0.6337 0.0000
vn 0.7716 0.6361 -0.0000
vn -0.7696 -0.6386 0.0000
vn 0.7682 -0.6402 0.0000
vn -1.0000 0.0000 0.0000
vn -0.4318 0.6378 -0.6378
vn -0.4318 0.0000 -0.9019
vn -0.4318 0.9019 0.0000
vn -0.4318 0.6378 0.6378
vn -0.4318 0.0000 0.9019
vn -0.4318 -0.6378 0.6378
vn -0.4318 -0.9019 0.0000
vn -0.4318 -0.6378 -0.6378
vn 1.0000 0.0000 0.0000
vn 0.5773 -0.5773 0.5773
vn -0.5773 -0.5773 0.5773
vn -0.5773 -0.5773 -0.5773
vn 0.5773 -0.5773 -0.5773
vn 0.5773 0.5773 0.5773
vn 0.5773 0.5773 -0.5773
vn -0.5773 0.5773 -0.5773
vn -0.5773 0.5773 0.5773
usemtl wire_085028177
s off
f 6/1/1 5/2/1 4/3/1
f 6/1/1 4/3/1 3/4/1
f 3/4/1 2/5/1 1/6/1
f 3/4/1 1/6/1 12/7/1
f 6/1/1 3/4/1 12/7/1
f 7/8/1 6/1/1 12/7/1
f 7/8/1 12/7/1 9/9/1
f 9/9/1 12/7/1 11/10/1
f 7/8/1 9/9/1 8/11/1
f 10/12/1 9/9/1 11/10/1
f 18/13/2 16/14/2 17/15/2
f 18/13/2 15/16/2 16/14/2
f 15/16/2 13/17/2 14/18/2
f 15/16/2 24/19/2 13/17/2
f 18/13/2 24/19/2 15/16/2
f 19/20/2 24/19/2 18/13/2
f 19/20/2 21/21/2 24/19/2
f 21/21/2 23/22/2 24/19/2
f 19/20/2 20/23/2 21/21/2
f 22/24/2 23/22/2 21/21/2
f 9/9/3 10/12/3 22/24/3 21/21/3
f 7/8/4 18/13/4 6/1/4
f 1/6/5 24/19/5 12/7/5
f 11/10/6 22/24/6 10/12/6
f 2/5/7 13/17/7 1/6/7
f 5/2/7 16/14/7 4/3/7
f 4/3/8 15/16/8 3/4/8
f 3/4/9 14/18/9 2/5/9
f 8/11/6 19/20/6 7/8/6
f 12/7/10 23/22/10 11/10/10
f 6/1/11 17/15/11 5/2/11
f 8/11/12 9/9/12 21/21/12 20/23/12
f 7/8/4 19/20/4 18/13/4
f 1/6/5 13/17/5 24/19/5
f 11/10/6 23/22/6 22/24/6
f 2/5/7 14/18/7 13/17/7
f 5/2/7 17/15/7 16/14/7
f 4/3/8 16/14/8 15/16/8
f 3/4/9 15/16/9 14/18/9
f 8/11/6 20/23/6 19/20/6
f 12/7/10 24/19/10 23/22/10
f 6/1/11 18/13/11 17/15/11
s 1
f 25/25/13 26/26/14 27/27/15
f 25/25/13 28/28/16 26/26/14
f 25/25/13 29/29/17 28/28/16
f 25/25/13 30/30/18 29/29/17
f 25/25/13 31/31/19 30/30/18
f 25/25/13 32/32/20 31/31/19
f 25/25/13 33/33/21 32/32/20
f 25/25/13 27/27/15 33/33/21
f 27/27/15 26/26/14 34/34/22
f 26/26/14 28/28/16 34/34/22
f 28/28/16 29/29/17 34/34/22
f 29/29/17 30/30/18 34/34/22
f 30/30/18 31/31/19 34/34/22
f 31/31/19 32/32/20 34/34/22
f 32/32/20 33/33/21 34/34/22
f 33/33/21 27/27/15 34/34/22
f 35/35/23 36/36/24 37/37/25
f 37/37/25 38/38/26 35/35/23
f 39/39/27 40/40/28 41/41/29
f 41/41/29 42/42/30 39/39/27
f 35/35/23 38/38/26 40/40/28
f 40/40/28 39/39/27 35/35/23
f 38/38/26 37/37/25 41/41/29
f 41/41/29 40/40/28 38/38/26
f 37/37/25 36/36/24 42/42/30
f 42/42/30 41/41/29 37/37/25
f 36/36/24 35/35/23 39/39/27
f 39/39/27 42/42/30 36/36/24
