# Blender v2.79 (sub 0) OBJ File: 'y-axis.blend'
# www.blender.org
mtllib y-axis.mtl
o Text_CUText
v -7.184579 129.307388 3.169848
v -7.184580 138.078354 10.000001
v -7.184581 138.078354 14.404142
v -7.184579 126.097595 4.961364
v -7.184578 112.623909 4.961364
v -7.184578 112.623909 1.303688
v -7.184579 126.060272 1.303688
v -7.184579 138.078354 -8.139090
v -7.184579 138.078354 -3.734949
v 1.800822 129.307388 3.169849
v 1.800820 138.078354 10.000002
v 1.800820 138.078354 14.404143
v 1.800822 126.097595 4.961365
v 1.800823 112.623909 4.961365
v 1.800823 112.623909 1.303689
v 1.800822 126.060272 1.303689
v 1.800822 138.078354 -8.139090
v 1.800821 138.078354 -3.734949
v -3.476000 84.398506 2.366802
v 4.661601 84.398506 10.504403
v -3.476000 84.398506 13.875104
v 8.032299 84.398506 2.366803
v 4.661599 84.398506 -5.770796
v -3.476000 84.398506 -9.141497
v -11.613599 84.398506 -5.770796
v -14.984299 84.398506 2.366802
v -11.613600 84.398506 10.504403
v -3.476000 104.985100 2.366803
v -4.207900 84.337311 1.836603
v -4.207900 1.019402 1.836599
v -4.207900 1.019402 3.663699
v -4.207900 84.337311 3.663703
v -2.746201 84.337311 1.836602
v -2.746201 84.337311 3.663703
v -2.746200 1.019402 3.663699
v -2.746200 1.019402 1.836599
vt 0.000000 0.000000
vt 0.000000 0.000000
vt 0.000000 0.000000
vt 0.000000 0.000000
vt 0.000000 0.000000
vt 0.000000 0.000000
vt 0.000000 0.000000
vt 0.000000 0.000000
vt 0.000000 0.000000
vt 0.000000 0.000000
vt 0.000000 0.000000
vt 0.000000 0.000000
vt 0.000000 0.000000
vt 0.000000 0.000000
vt 0.000000 0.000000
vt 0.000000 0.000000
vt 0.000000 0.000000
vt 0.000000 0.000000
vt 0.500000 0.500000
vt 0.853600 0.853600
vt 1.000000 0.500000
vt 0.500000 1.000000
vt 0.146400 0.853600
vt 0.000000 0.500000
vt 0.146400 0.146400
vt 0.500000 0.000000
vt 0.853600 0.146400
vt 0.500000 0.500000
vt 0.477000 0.468200
vt 0.477000 0.468200
vt 0.556300 0.468200
vt 0.556300 0.468200
vt 0.477000 0.531700
vt 0.556300 0.531700
vt 0.556300 0.531700
vt 0.477000 0.531700
vn -1.0000 -0.0000 -0.0000
vn 1.0000 0.0000 0.0000
vn -0.0000 -0.6190 0.7854
vn 0.0000 -0.0000 1.0000
vn 0.0000 0.6186 0.7857
vn 0.0000 -1.0000 -0.0000
vn 0.0000 0.6144 -0.7890
vn 0.0000 1.0000 0.0000
vn 0.0000 0.0000 -1.0000
vn 0.0000 -0.6178 -0.7863
vn 0.6378 -0.4318 0.6378
vn 0.0000 -0.4318 0.9019
vn 0.9019 -0.4318 0.0000
vn 0.6378 -0.4318 -0.6378
vn 0.0000 -0.4318 -0.9019
vn -0.6378 -0.4318 -0.6378
vn -0.9019 -0.4318 0.0000
vn -0.6378 -0.4318 0.6378
vn -0.5773 0.5773 -0.5773
vn -0.5773 -0.5773 -0.5773
vn -0.5773 -0.5773 0.5773
vn -0.5773 0.5773 0.5773
vn 0.5773 0.5773 -0.5773
vn 0.5773 0.5773 0.5773
vn 0.5773 -0.5773 0.5773
vn 0.5773 -0.5773 -0.5773
usemtl wire_085028177
s off
f 4/1/1 3/2/1 2/3/1
f 4/1/1 2/3/1 1/4/1
f 1/4/1 9/5/1 8/6/1
f 1/4/1 8/6/1 7/7/1
f 4/1/1 1/4/1 7/7/1
f 5/8/1 4/1/1 7/7/1
f 5/8/1 7/7/1 6/9/1
f 13/10/2 11/11/2 12/12/2
f 13/10/2 10/13/2 11/11/2
f 10/13/2 17/14/2 18/15/2
f 10/13/2 16/16/2 17/14/2
f 13/10/2 16/16/2 10/13/2
f 14/17/2 16/16/2 13/10/2
f 14/17/2 15/18/2 16/16/2
f 4/1/3 12/12/3 3/2/3
f 5/8/4 13/10/4 4/1/4
f 1/4/5 18/15/5 9/5/5
f 6/9/6 14/17/6 5/8/6
f 2/3/7 10/13/7 1/4/7
f 9/5/8 17/14/8 8/6/8
f 7/7/9 15/18/9 6/9/9
f 8/6/10 16/16/10 7/7/10
f 3/2/8 11/11/8 2/3/8
f 4/1/3 13/10/3 12/12/3
f 5/8/4 14/17/4 13/10/4
f 1/4/5 10/13/5 18/15/5
f 6/9/6 15/18/6 14/17/6
f 2/3/7 11/11/7 10/13/7
f 9/5/8 18/15/8 17/14/8
f 7/7/9 16/16/9 15/18/9
f 8/6/10 17/14/10 16/16/10
f 3/2/8 12/12/8 11/11/8
s 1
f 19/19/6 20/20/11 21/21/12
f 19/19/6 22/22/13 20/20/11
f 19/19/6 23/23/14 22/22/13
f 19/19/6 24/24/15 23/23/14
f 19/19/6 25/25/16 24/24/15
f 19/19/6 26/26/17 25/25/16
f 19/19/6 27/27/18 26/26/17
f 19/19/6 21/21/12 27/27/18
f 21/21/12 20/20/11 28/28/8
f 20/20/11 22/22/13 28/28/8
f 22/22/13 23/23/14 28/28/8
f 23/23/14 24/24/15 28/28/8
f 24/24/15 25/25/16 28/28/8
f 25/25/16 26/26/17 28/28/8
f 26/26/17 27/27/18 28/28/8
f 27/27/18 21/21/12 28/28/8
f 29/29/19 30/30/20 31/31/21
f 31/31/21 32/32/22 29/29/19
f 33/33/23 34/34/24 35/35/25
f 35/35/25 36/36/26 33/33/23
f 29/29/19 32/32/22 34/34/24
f 34/34/24 33/33/23 29/29/19
f 32/32/22 31/31/21 35/35/25
f 35/35/25 34/34/24 32/32/22
f 31/31/21 30/30/20 36/36/26
f 36/36/26 35/35/25 31/31/21
f 30/30/20 29/29/19 33/33/23
f 33/33/23 36/36/26 30/30/20
