# Blender v2.79 (sub 0) OBJ File: ''
# www.blender.org
mtllib z-axis.mtl
o Text_CUText
v -6.743491 -1.727076 129.387665
v 7.898062 -1.727076 109.348297
v -12.849765 -1.727076 109.348297
v -12.849765 -1.727076 112.317093
v 1.791791 -1.727076 112.317093
v -12.849761 -1.727076 132.356461
v 6.987185 -1.727076 132.356461
v 6.987185 -1.727076 129.387665
v -6.743491 -1.727076 129.387665
v 7.898062 -1.727076 109.348297
v -12.849765 -1.727076 109.348297
v -12.849765 -1.727076 112.317093
v 1.791791 -1.727076 112.317093
v -12.849761 -1.727076 132.356461
v 6.987185 -1.727076 132.356461
v 6.987185 -1.727076 129.387665
v -6.743491 5.756827 129.387665
v 7.898062 5.756827 109.348297
v -12.849765 5.756827 109.348297
v -12.849765 5.756827 112.317093
v 1.791791 5.756827 112.317093
v -12.849761 5.756827 132.356461
v 6.987185 5.756827 132.356461
v 6.987185 5.756827 129.387665
v -4.240200 -0.441704 84.086098
v 3.897400 7.695897 84.086090
v 7.268100 -0.441704 84.086090
v -4.240200 11.066596 84.086098
v -12.377799 7.695897 84.086098
v -15.748500 -0.441704 84.086098
v -12.377799 -8.579303 84.086098
v -4.240200 -11.950103 84.086098
v 3.897400 -8.579303 84.086090
v -4.240200 -0.441705 104.672798
v -4.770400 -1.173604 84.025002
v -4.770399 -1.173600 0.706993
v -2.943200 -1.173600 0.707001
v -2.943199 -1.173604 84.025002
v -4.770400 0.288096 84.025002
v -2.943199 0.288096 84.025002
v -2.943200 0.288100 0.707001
v -4.770399 0.288100 0.706993
vt 0.000000 0.000000
vt 0.000000 0.000000
vt 0.000000 0.000000
vt 0.000000 0.000000
vt 0.000000 0.000000
vt 0.000000 0.000000
vt 0.000000 0.000000
vt 0.000000 0.000000
vt 0.000000 0.000000
vt 0.000000 0.000000
vt 0.000000 0.000000
vt 0.000000 0.000000
vt 0.000000 0.000000
vt 0.000000 0.000000
vt 0.000000 0.000000
vt 0.000000 0.000000
vt 0.000000 0.000000
vt 0.000000 0.000000
vt 0.000000 0.000000
vt 0.000000 0.000000
vt 0.000000 0.000000
vt 0.000000 0.000000
vt 0.000000 0.000000
vt 0.000000 0.000000
vt 0.500000 0.500000
vt 0.853600 0.853600
vt 1.000000 0.500000
vt 0.500000 1.000000
vt 0.146400 0.853600
vt 0.000000 0.500000
vt 0.146400 0.146400
vt 0.500000 0.000000
vt 0.853600 0.146400
vt 0.500000 0.500000
vt 0.477000 0.468200
vt 0.477000 0.468200
vt 0.556300 0.468200
vt 0.556300 0.468200
vt 0.477000 0.531700
vt 0.556300 0.531700
vt 0.556300 0.531700
vt 0.477000 0.531700
vn 0.0000 -1.0000 0.0000
vn -1.0000 0.0000 0.0000
vn 0.0000 0.0000 1.0000
vn 0.0000 0.0000 -1.0000
vn -0.8074 0.0000 -0.5899
vn 0.8074 0.0000 0.5899
vn 0.0000 1.0000 0.0000
vn 1.0000 0.0000 0.0000
vn 0.6378 0.6378 -0.4318
vn 0.9019 0.0000 -0.4318
vn 0.0000 0.9019 -0.4318
vn -0.6378 0.6378 -0.4318
vn -0.9019 0.0000 -0.4318
vn -0.6378 -0.6378 -0.4318
vn 0.0000 -0.9019 -0.4318
vn 0.6378 -0.6378 -0.4318
vn -0.5773 -0.5773 0.5773
vn -0.5773 -0.5773 -0.5773
vn 0.5773 -0.5773 -0.5773
vn 0.5773 -0.5773 0.5773
vn -0.5773 0.5773 0.5773
vn 0.5773 0.5773 0.5773
vn 0.5773 0.5773 -0.5773
vn -0.5773 0.5773 -0.5773
usemtl wire_085028177
s off
f 8/1/1 7/2/1 6/3/1
f 8/1/1 6/3/1 1/4/1
f 1/4/1 6/3/1 5/5/1
f 2/6/1 1/4/1 5/5/1
f 2/6/1 5/5/1 4/7/1
f 2/6/1 4/7/1 3/8/1
f 12/9/2 19/10/2 11/11/2
f 15/12/3 22/13/3 14/14/3
f 11/11/4 18/15/4 10/16/4
f 14/14/5 21/17/5 13/18/5
f 13/18/3 20/19/3 12/9/3
f 10/16/6 17/20/6 9/21/6
f 7/2/3 16/22/3 15/12/3
f 1/4/3 10/16/3 9/21/3
f 4/7/3 13/18/3 12/9/3
f 5/5/3 14/14/3 13/18/3
f 2/6/3 11/11/3 10/16/3
f 6/3/3 15/12/3 14/14/3
f 3/8/3 12/9/3 11/11/3
f 8/1/3 9/21/3 16/22/3
f 24/23/7 22/13/7 23/24/7
f 24/23/7 17/20/7 22/13/7
f 17/20/7 21/17/7 22/13/7
f 18/15/7 21/17/7 17/20/7
f 18/15/7 20/19/7 21/17/7
f 18/15/7 19/10/7 20/19/7
f 9/21/4 24/23/4 16/22/4
f 16/22/8 23/24/8 15/12/8
f 12/9/2 20/19/2 19/10/2
f 15/12/3 23/24/3 22/13/3
f 11/11/4 19/10/4 18/15/4
f 14/14/5 22/13/5 21/17/5
f 13/18/3 21/17/3 20/19/3
f 10/16/6 18/15/6 17/20/6
f 7/2/3 8/1/3 16/22/3
f 1/4/3 2/6/3 10/16/3
f 4/7/3 5/5/3 13/18/3
f 5/5/3 6/3/3 14/14/3
f 2/6/3 3/8/3 11/11/3
f 6/3/3 7/2/3 15/12/3
f 3/8/3 4/7/3 12/9/3
f 8/1/3 1/4/3 9/21/3
f 9/21/4 17/20/4 24/23/4
f 16/22/8 24/23/8 23/24/8
s 1
f 25/25/4 26/26/9 27/27/10
f 25/25/4 28/28/11 26/26/9
f 25/25/4 29/29/12 28/28/11
f 25/25/4 30/30/13 29/29/12
f 25/25/4 31/31/14 30/30/13
f 25/25/4 32/32/15 31/31/14
f 25/25/4 33/33/16 32/32/15
f 25/25/4 27/27/10 33/33/16
f 27/27/10 26/26/9 34/34/3
f 26/26/9 28/28/11 34/34/3
f 28/28/11 29/29/12 34/34/3
f 29/29/12 30/30/13 34/34/3
f 30/30/13 31/31/14 34/34/3
f 31/31/14 32/32/15 34/34/3
f 32/32/15 33/33/16 34/34/3
f 33/33/16 27/27/10 34/34/3
f 35/35/17 36/36/18 37/37/19
f 37/37/19 38/38/20 35/35/17
f 39/39/21 40/40/22 41/41/23
f 41/41/23 42/42/24 39/39/21
f 35/35/17 38/38/20 40/40/22
f 40/40/22 39/39/21 35/35/17
f 38/38/20 37/37/19 41/41/23
f 41/41/23 40/40/22 38/38/20
f 37/37/19 36/36/18 42/42/24
f 42/42/24 41/41/23 37/37/19
f 36/36/18 35/35/17 39/39/21
f 39/39/21 42/42/24 36/36/18
